#tb 0: 1/22050
0,          0,          0,    57330,   229320, 0x062508b4
0,      57330,      57330,    57330,   229320, 0x0a966cbf
0,     114660,     114660,    57330,   229320, 0xee9bad45
0,     171990,     171990,    57330,   229320, 0xde88274e
0,     229320,     229320,    57330,   229320, 0x2fdeeaf6
0,     286650,     286650,    57330,   229320, 0xf793fe5b
